<?xml version="1.0" standalone="no"?>
<svg xmlns="http://www.w3.org/2000/svg" xmlns:xlink="http://www.w3.org/1999/xlink" width="530pt" height="817pt" viewBox="0.00 0.00 529.91 817">
<g id="graph0" class="graph" transform="translate(-126.55570242463926,1081.0810259581872) scale(1.3195079107728946)" data-name="G">

<polygon fill="#2e3e56" stroke="none" points="-4,4 -4,-813 525.91,-813 525.91,4 -4,4"/>
<g id="clust3" class="cluster" data-name="cluster_01">

<polygon fill="#2e3e56" stroke="black" points="68.84,-672 68.84,-801 439.79,-801 439.79,-672 68.84,-672" style=""/>
<text text-anchor="middle" x="254.31" y="-784.4" font-family="Times,serif" font-size="14.00" style="">Legend</text>
</g>
<g id="clust1" class="cluster" data-name="clusterFundMe">

<path fill="#445773" stroke="#445773" d="M20,-93C20,-93 501.91,-93 501.91,-93 507.91,-93 513.91,-99 513.91,-105 513.91,-105 513.91,-652 513.91,-652 513.91,-658 507.91,-664 501.91,-664 501.91,-664 20,-664 20,-664 14,-664 8,-658 8,-652 8,-652 8,-105 8,-105 8,-99 14,-93 20,-93" style=""/>
<text text-anchor="middle" x="260.95" y="-647.4" font-family="Times,serif" font-size="14.00" fill="#f0f0f0" style="">FundMe</text>
</g>
<g id="clust2" class="cluster" data-name="clusterAggregatorV3Interface">

<path fill="#3b4b63" stroke="#e8726d" stroke-dasharray="5,2" d="M344.32,-8C344.32,-8 466.25,-8 466.25,-8 472.25,-8 478.25,-14 478.25,-20 478.25,-20 478.25,-73 478.25,-73 478.25,-79 472.25,-85 466.25,-85 466.25,-85 344.32,-85 344.32,-85 338.32,-85 332.32,-79 332.32,-73 332.32,-73 332.32,-20 332.32,-20 332.32,-14 338.32,-8 344.32,-8" style=""/>
<text text-anchor="middle" x="405.29" y="-68.4" font-family="Times,serif" font-size="14.00" fill="#f0f0f0" style="">AggregatorV3Interface</text>
</g>
<!-- FundMe.onlyOwner -->
<g id="node1" class="node" pointer-events="visible" data-name="FundMe.onlyOwner">

<polygon fill="#edad56" stroke="#1bc6a6" stroke-width="3" points="200.78,-601.54 200.78,-616.46 166.25,-627 117.42,-627 82.89,-616.46 82.89,-601.54 117.42,-591 166.25,-591 200.78,-601.54"/>
<polygon fill="none" stroke="#1bc6a6" stroke-width="3" points="204.78,-598.58 204.78,-619.42 166.85,-631 116.82,-631 78.89,-619.42 78.89,-598.58 116.82,-587 166.85,-587 204.78,-598.58"/>
<text text-anchor="middle" x="141.84" y="-604.8" font-family="Times,serif" font-size="14.00">onlyOwner</text>
</g>
<!-- FundMe.FundMe__NotOwner --><g id="edge1" class="edge" data-name="FundMe.onlyOwner-&gt;FundMe.FundMe__NotOwner" data-comment="FundMe.FundMe__NotOwner">

<path fill="none" stroke="#1bc6a6" stroke-width="2" d="M206,-609C233.06,-609 265.44,-609 296.08,-609"/>
<polygon fill="#1bc6a6" stroke="#1bc6a6" stroke-width="2" points="296.06,-612.5 306.06,-609 296.06,-605.5 296.06,-612.5"/>
</g>
<g id="node11" class="node" pointer-events="visible" data-name="FundMe.FundMe__NotOwner">

<ellipse fill="#edad56" stroke="#edad56" stroke-width="3" cx="404.79" cy="-609" rx="94.37" ry="18"/>
<text text-anchor="middle" x="404.79" y="-604.8" font-family="Times,serif" font-size="14.00">FundMe__NotOwner</text>
</g>
<!-- FundMe.onlyOwner&#45;&gt;FundMe.FundMe__NotOwner -->

<!-- FundMe.&lt;Constructor&gt; -->
<g id="node2" class="node" pointer-events="visible" data-name="FundMe.&lt;Constructor&gt;">

<ellipse fill="#ff9797" stroke="#ff9797" stroke-width="3" cx="141.84" cy="-551" rx="67.55" ry="18"/>
<text text-anchor="middle" x="141.84" y="-546.8" font-family="Times,serif" font-size="14.00">&lt;Constructor&gt;</text>
</g>
<!-- FundMe.AggregatorV3Interface --><g id="edge2" class="edge" data-name="FundMe.&lt;Constructor&gt;-&gt;FundMe.AggregatorV3Interface" data-comment="FundMe.AggregatorV3Interface">

<path fill="none" stroke="#1bc6a6" stroke-width="2" d="M210.72,-551C234.83,-551 262.69,-551 289.61,-551"/>
<polygon fill="#1bc6a6" stroke="#1bc6a6" stroke-width="2" points="289.28,-554.5 299.28,-551 289.28,-547.5 289.28,-554.5"/>
</g>
<g id="node12" class="node" pointer-events="visible" data-name="FundMe.AggregatorV3Interface">

<ellipse fill="#edad56" stroke="#edad56" stroke-width="3" cx="404.79" cy="-551" rx="101.24" ry="18"/>
<text text-anchor="middle" x="404.79" y="-546.8" font-family="Times,serif" font-size="14.00">AggregatorV3Interface</text>
</g>
<!-- FundMe.&lt;Constructor&gt;&#45;&gt;FundMe.AggregatorV3Interface -->

<!-- FundMe.fund -->
<g id="node3" class="node" pointer-events="visible" data-name="FundMe.fund">

<ellipse fill="#ff9797" stroke="brown" stroke-width="3" cx="141.84" cy="-497" rx="28.98" ry="18"/>
<text text-anchor="middle" x="141.84" y="-492.8" font-family="Times,serif" font-size="14.00">fund</text>
</g>
<!-- FundMe.withdraw -->
<g id="node4" class="node" pointer-events="visible" data-name="FundMe.withdraw">

<ellipse fill="#ff9797" stroke="#ff9797" stroke-width="3" cx="141.84" cy="-443" rx="47.52" ry="18"/>
<text text-anchor="middle" x="141.84" y="-438.8" font-family="Times,serif" font-size="14.00">withdraw</text>
</g>
<!-- FundMe.address --><g id="edge3" class="edge" data-name="FundMe.withdraw-&gt;FundMe.address" data-comment="FundMe.address">

<path fill="none" stroke="#1bc6a6" stroke-width="2" d="M189.19,-438.2C234.7,-433.49 304.03,-426.32 351.49,-421.41"/>
<polygon fill="#1bc6a6" stroke="#1bc6a6" stroke-width="2" points="351.67,-424.91 361.25,-420.4 350.95,-417.95 351.67,-424.91"/>
</g>
<g id="node13" class="node" pointer-events="visible" data-name="FundMe.address">

<ellipse fill="#edad56" stroke="#edad56" stroke-width="3" cx="404.79" cy="-416" rx="40" ry="18"/>
<text text-anchor="middle" x="404.79" y="-411.8" font-family="Times,serif" font-size="14.00">address</text>
</g>
<!-- FundMe.withdraw&#45;&gt;FundMe.address -->

<!-- FundMe.cheaperWithdraw --><g id="edge4" class="edge" data-name="FundMe.cheaperWithdraw-&gt;FundMe.address" data-comment="FundMe.cheaperWithdraw">

<path fill="none" stroke="#1bc6a6" stroke-width="2" d="M216.57,-396.63C259.67,-401.09 313.03,-406.61 351.74,-410.62"/>
<polygon fill="#1bc6a6" stroke="#1bc6a6" stroke-width="2" points="351.21,-414.08 361.52,-411.63 351.93,-407.12 351.21,-414.08"/>
</g>
<g id="node5" class="node" pointer-events="visible" data-name="FundMe.cheaperWithdraw">

<ellipse fill="#ff9797" stroke="#ff9797" stroke-width="3" cx="141.84" cy="-389" rx="79.84" ry="18"/>
<text text-anchor="middle" x="141.84" y="-384.8" font-family="Times,serif" font-size="14.00">cheaperWithdraw</text>
</g>
<!-- FundMe.cheaperWithdraw&#45;&gt;FundMe.address -->

<!-- FundMe.getAddressToAmountFunded -->
<g id="node6" class="node" pointer-events="visible" data-name="FundMe.getAddressToAmountFunded">

<ellipse fill="#ff9797" stroke="#ff9797" stroke-width="3" cx="141.84" cy="-335" rx="125.67" ry="18"/>
<text text-anchor="middle" x="141.84" y="-330.8" font-family="Times,serif" font-size="14.00">getAddressToAmountFunded</text>
</g>
<!-- FundMe.getVersion -->
<g id="node7" class="node" pointer-events="visible" data-name="FundMe.getVersion">

<ellipse fill="#ff9797" stroke="#ff9797" stroke-width="3" cx="141.84" cy="-281" rx="53.32" ry="18"/>
<text text-anchor="middle" x="141.84" y="-276.8" font-family="Times,serif" font-size="14.00">getVersion</text>
</g>
<!-- AggregatorV3Interface.version --><g id="edge5" class="edge" data-name="FundMe.getVersion-&gt;AggregatorV3Interface.version" data-comment="AggregatorV3Interface.version">

<path fill="none" stroke="white" stroke-width="2" d="M196.41,-282.04C221.18,-279.67 249.15,-272.48 267.67,-254 320.79,-200.97 258.75,-149.13 303.67,-89 317.33,-70.71 338.95,-57.75 358.61,-49.02"/>
<polygon fill="white" stroke="white" stroke-width="2" points="359.79,-52.32 367.71,-45.28 357.13,-45.85 359.79,-52.32"/>
</g>
<g id="node14" class="node" pointer-events="visible" data-name="AggregatorV3Interface.version">

<ellipse fill="#edad56" stroke="#edad56" stroke-width="3" cx="404.79" cy="-34" rx="39.43" ry="18"/>
<text text-anchor="middle" x="404.79" y="-29.8" font-family="Times,serif" font-size="14.00">version</text>
</g><!-- FundMe.getFunder -->
<!-- FundMe.getVersion&#45;&gt;AggregatorV3Interface.version -->
<!-- FundMe.getOwner -->
<g id="node8" class="node" pointer-events="visible" data-name="FundMe.getFunder" data-comment="FundMe.getOwner">

<ellipse fill="#ff9797" stroke="#ff9797" stroke-width="3" cx="141.84" cy="-227" rx="50.39" ry="18"/>
<text text-anchor="middle" x="141.84" y="-222.8" font-family="Times,serif" font-size="14.00">getFunder</text>
</g><g id="node9" class="node" pointer-events="visible" data-name="FundMe.getOwner">

<ellipse fill="#ff9797" stroke="#ff9797" stroke-width="3" cx="141.84" cy="-173" rx="49.23" ry="18"/>
<text text-anchor="middle" x="141.84" y="-168.8" font-family="Times,serif" font-size="14.00">getOwner</text>
</g>
<!-- FundMe.getPriceFeed -->
<g id="node10" class="node" pointer-events="visible" data-name="FundMe.getPriceFeed">

<ellipse fill="#ff9797" stroke="#ff9797" stroke-width="3" cx="141.84" cy="-119" rx="61.4" ry="18"/>
<text text-anchor="middle" x="141.84" y="-114.8" font-family="Times,serif" font-size="14.00">getPriceFeed</text>
</g>
<!-- key -->
<g id="node15" class="node" pointer-events="visible" data-name="key">

<polygon fill="#edad56" stroke="none" stroke-width="3" points="206.84,-768 76.84,-768 76.84,-680 206.84,-680 206.84,-768"/>
<text text-anchor="start" x="126.47" y="-749.4" font-family="Times,serif" font-size="14.00">Internal Call</text>
<text text-anchor="start" x="122.58" y="-729.4" font-family="Times,serif" font-size="14.00">External Call</text>
<text text-anchor="start" x="100.04" y="-709.4" font-family="Times,serif" font-size="14.00">Defined Contract</text>
<text text-anchor="start" x="86.44" y="-689.4" font-family="Times,serif" font-size="14.00">Undefined Contract</text>
</g>
<!-- key2 -->
<g id="node16" class="node" pointer-events="visible" data-name="key2">

<polygon fill="#edad56" stroke="none" stroke-width="3" points="431.79,-768 377.79,-768 377.79,-680 431.79,-680 431.79,-768"/>
<text text-anchor="start" x="394.79" y="-749.4" font-family="Times,serif" font-size="14.00">   </text>
<text text-anchor="start" x="394.79" y="-729.4" font-family="Times,serif" font-size="14.00">   </text>
<polygon fill="#445773" stroke="none" points="392.79,-704 392.79,-724 417.79,-724 417.79,-704 392.79,-704"/>
<text text-anchor="start" x="394.79" y="-709.4" font-family="Times,serif" font-size="14.00">   </text>
<polygon fill="none" stroke="#e8726d" points="394.79,-686 394.79,-702 415.79,-702 415.79,-686 394.79,-686"/>
</g>
<!-- key&#45;&gt;key2 -->
<g id="edge6" class="edge" data-name="key-&gt;key2">

<path fill="none" stroke="#1bc6a6" stroke-width="2" d="M199.84,-754C280.65,-754 304.05,-754 378.81,-754"/>
<polygon fill="#1bc6a6" stroke="#1bc6a6" stroke-width="2" points="378.76,-757.5 388.76,-754 378.76,-750.5 378.76,-757.5"/>
</g>

<!-- key&#45;&gt;key2 -->


<g id="edge7" class="edge" data-name="key-&gt;key2">

<path fill="none" stroke="white" stroke-width="2" d="M199.84,-734C280.65,-734 304.05,-734 378.81,-734"/>
<polygon fill="white" stroke="white" stroke-width="2" points="378.76,-737.5 388.76,-734 378.76,-730.5 378.76,-737.5"/>
</g>
</g>
</svg>